<svg xmlns="http://www.w3.org/2000/svg" version="1.1" xmlns:xlink="http://www.w3.org/1999/xlink" width="512" height="512" x="0" y="0" viewBox="0 0 32 32" style="enable-background:new 0 0 512 512" xml:space="preserve" fill-rule="evenodd" class=""><g><path d="M15.668 30.943a.997.997 0 0 0 .658.002C23.936 28.321 28.978 21.584 29 8.002a.997.997 0 0 0-.553-.896l-12-6a.998.998 0 0 0-.894 0l-12 6a.997.997 0 0 0-.553.89c-.053 13.61 5.11 20.288 12.668 22.947zM10 15.87v5.061a2 2 0 0 0 2 2h8a2 2 0 0 0 2-2V15.87a2.438 2.438 0 0 1-.961-.456L16 11.495l-5.039 3.919a2.438 2.438 0 0 1-.961.456zm6 .061a2 2 0 0 1 2 2v2a1 1 0 0 1-1 1h-2a1 1 0 0 1-1-1v-2a2 2 0 0 1 2-2zm-5.653-1.306L16 10.228l5.653 4.397a1.456 1.456 0 0 0 1.786-2.297l-6.546-5.091a1.456 1.456 0 0 0-1.786 0l-6.546 5.091a1.456 1.456 0 0 0 1.786 2.297z" fill="#0e5a8a" opacity="1" data-original="#000000" class=""></path></g></svg>