<svg xmlns="http://www.w3.org/2000/svg" viewBox="0 0 600 180" width="100" height="32">
  <path fill="#ecaa20" d="M531.3 66.7h-15.1c-2.3 0-3.8 1.7-3.8 3.4v45.8c0 1.7 1.5 3.4 3.8 3.4h15.1c24.8 0 33.4-10.2 33.4-26.3 0-16.1-8.6-26.3-33.4-26.3zm14.5 26.3c0 8.8-3.9 13.3-16.3 13.3h-3.8V79.7h3.8c12.4 0 16.3 4.5 16.3 13.3zM442.4 66.7h-13.7c-2.3 0-3.8 1.7-3.8 3.4v45.8c0 1.7 1.5 3.4 3.8 3.4h13.7c23.5 0 31.9-10.2 31.9-26.3 0-16.1-8.4-26.3-31.9-26.3zm13 26.3c0 8.8-3.7 13.3-14.8 13.3h-2.4V79.7h2.4c11.1 0 14.8 4.5 14.8 13.3zM382.3 66.7h-21.5c-2.3 0-3.8 1.7-3.8 3.4v45.8c0 1.7 1.5 3.4 3.8 3.4h21.5c2.3 0 3.8-1.7 3.8-3.4v-7.9c0-1.7-1.5-3.4-3.8-3.4h-12.2V97.8h12.2c2.3 0 3.8-1.7 3.8-3.4v-7.9c0-1.7-1.5-3.4-3.8-3.4h-12.2v-3.4h12.2c2.3 0 3.8-1.7 3.8-3.4v-6.2c0-1.7-1.5-3.4-3.8-3.4zM254.8 66.7h-21.5c-2.3 0-3.8 1.7-3.8 3.4v45.8c0 1.7 1.5 3.4 3.8 3.4h21.5c2.3 0 3.8-1.7 3.8-3.4v-7.9c0-1.7-1.5-3.4-3.8-3.4h-12.2V97.8h12.2c2.3 0 3.8-1.7 3.8-3.4v-7.9c0-1.7-1.5-3.4-3.8-3.4h-12.2v-3.4h12.2c2.3 0 3.8-1.7 3.8-3.4v-6.2c0-1.7-1.5-3.4-3.8-3.4z"/>
  <path fill="#0072ce" d="M348.2 66.7h-9.3c-2.3 0-3.8 1.7-3.8 3.4v28.6l-14.5-29.2c-1-1.7-2-2.8-4.8-2.8h-8.1c-2.3 0-3.8 1.7-3.8 3.4v45.8c0 1.7 1.5 3.4 3.8 3.4h9.3c2.3 0 3.8-1.7 3.8-3.4V87.3l14.5 29.2c1 1.7 2 2.8 4.8 2.8h8.1c2.3 0 3.8-1.7 3.8-3.4V70.1c0-1.7-1.5-3.4-3.8-3.4zM220.7 66.7h-9.3c-2.3 0-3.8 1.7-3.8 3.4v28.6l-14.5-29.2c-1-1.7-2-2.8-4.8-2.8H180c-2.3 0-3.8 1.7-3.8 3.4v45.8c0 1.7 1.5 3.4 3.8 3.4h9.3c2.3 0 3.8-1.7 3.8-3.4V87.3l14.5 29.2c1 1.7 2 2.8 4.8 2.8h8.1c2.3 0 3.8-1.7 3.8-3.4V70.1c.2-1.7-1.3-3.4-3.6-3.4zM485.3 66.7H464c-2.3 0-3.8 1.7-3.8 3.4v45.8c0 1.7 1.5 3.4 3.8 3.4h21.3c2.3 0 3.8-1.7 3.8-3.4v-7.9c0-1.7-1.5-3.4-3.8-3.4h-12.2V79.7h12.2c2.3 0 3.8-1.7 3.8-3.4v-6.2c0-1.7-1.5-3.4-3.8-3.4z"/>
  <path fill="#ecaa20" d="M146.8 66.7h-9.3c-2.3 0-3.8 1.7-3.8 3.4v28.6L119.2 69.5c-1-1.7-2-2.8-4.8-2.8h-8.1c-2.3 0-3.8 1.7-3.8 3.4v45.8c0 1.7 1.5 3.4 3.8 3.4h9.3c2.3 0 3.8-1.7 3.8-3.4V87.3l14.5 29.2c1 1.7 2 2.8 4.8 2.8h8.1c2.3 0 3.8-1.7 3.8-3.4V70.1c0-1.7-1.5-3.4-3.8-3.4z"/>
  <path fill="#0072ce" d="M71.1 66.7H49.6c-2.3 0-3.8 1.7-3.8 3.4v45.8c0 1.7 1.5 3.4 3.8 3.4h9.3c2.3 0 3.8-1.7 3.8-3.4V97.8h8.4c12.4 0 19.9-7.9 19.9-15.6 0-7.7-7.5-15.5-19.9-15.5zm-.2 18.9h-8.2v-5.6h8.2c2.3 0 4.1 1.1 4.1 2.8 0 1.7-1.8 2.8-4.1 2.8z"/>
</svg>
