<svg xmlns="http://www.w3.org/2000/svg" viewBox="0 0 1000 324" width="100" height="32">
  <path fill="#0066B2" d="M651.3,0.2h-118c-27.4,0-47.7,7.2-59.6,33.4L363.1,302.4h78.1c0,0,12.9-34.1,15.8-41.6c8.6,0,85.2,0.1,96.1,0.1c2.2,9.7,9.2,41.5,9.2,41.5h69L651.3,0.2L651.3,0.2z M480.6,198.5c6.2-15.9,29.8-76.6,29.8-76.6c-0.4,0.7,6.1-15.9,9.9-26.2l5,23.6c0,0,14.3,65.8,17.3,79.2C524.1,198.5,498.4,198.5,480.6,198.5L480.6,198.5z"/>
  <path fill="#0066B2" d="M321.2,202.9l-7.4-37.2c-12.7-41.5-51.7-86.5-95.6-109l62,225.7h78.1L442.9,0.2h-78.1L321.2,202.9L321.2,202.9z"/>
  <path fill="#F9A533" d="M177.3,0.2H3.2L2.3,7.4c135.6,33,225.6,112.8,262.9,208.7L238.7,34.4C232.9,12.3,212.2,0.2,177.3,0.2L177.3,0.2z"/>
  <path fill="#0066B2" d="M838.4,0.2h-73.6c-22.9,0-35.9,12.4-44.5,31.2l-140.4,271h78.1l19.5-54h119.5l11.4,54h69L838.4,0.2L838.4,0.2z M701.7,186.4c0,0,24.5-63.7,29.7-77.1l16.1,77.1H701.7L701.7,186.4z"/>
  <path fill="#0066B2" d="M915.2,302.4h74.2L941.7,0.2h-74.2L915.2,302.4L915.2,302.4z"/>
</svg>
